<svg width="328" height="30" viewBox="0 0 328 30" fill="none" xmlns="http://www.w3.org/2000/svg">
<path d="M0.6 29L11.8 0.759999H17.48L28.56 29H21.92L13.44 5.56H15.72L7.12 29H0.6ZM6.96 23.88V18.76H22.36V23.88H6.96ZM55.985 29L43.025 14.76C42.0117 13.64 41.2783 12.5867 40.825 11.6C40.3717 10.5867 40.145 9.48 40.145 8.28C40.145 6.84 40.505 5.52 41.225 4.32C41.9717 3.09333 42.9717 2.12 44.225 1.4C45.505 0.653331 46.985 0.279998 48.665 0.279998C49.9717 0.279998 51.1317 0.479998 52.145 0.88C53.1583 1.25333 54.0383 1.74667 54.785 2.36C55.5317 2.94667 56.105 3.57333 56.505 4.24L52.425 8.12C51.8917 7.4 51.3317 6.85333 50.745 6.48C50.185 6.10667 49.5183 5.92 48.745 5.92C47.945 5.92 47.2783 6.16 46.745 6.64C46.2383 7.09333 45.985 7.66666 45.985 8.36C45.985 8.94667 46.105 9.46667 46.345 9.92C46.6117 10.3733 46.985 10.88 47.465 11.44L63.145 29H55.985ZM46.705 29.44C44.785 29.44 43.105 29.0667 41.665 28.32C40.2517 27.5467 39.145 26.5067 38.345 25.2C37.5717 23.8667 37.185 22.3867 37.185 20.76C37.185 19 37.6517 17.44 38.585 16.08C39.5183 14.6933 40.9183 13.5733 42.785 12.72L45.385 16.68C44.585 17.0533 43.985 17.5467 43.585 18.16C43.185 18.7733 42.985 19.5067 42.985 20.36C42.985 21.0533 43.1317 21.6667 43.425 22.2C43.745 22.7067 44.1983 23.1067 44.785 23.4C45.3717 23.6933 46.065 23.84 46.865 23.84C47.7717 23.84 48.545 23.6533 49.185 23.28C49.8517 22.88 50.4117 22.3333 50.865 21.64L54.985 25.88C54.5317 26.4667 53.8783 27.04 53.025 27.6C52.1983 28.1333 51.2383 28.5733 50.145 28.92C49.0783 29.2667 47.9317 29.44 46.705 29.44ZM72.095 29V0.759999H76.495L78.375 6.4V29H72.095ZM91.575 29L74.935 7.68L76.495 0.759999L93.135 22.08L91.575 29ZM91.575 29L89.895 23.36V0.759999H96.175V29H91.575ZM109.243 29V0.759999H115.523V29H109.243ZM114.043 17.92V12.52H128.163V17.92H114.043ZM114.043 6.16V0.759999H128.803V6.16H114.043ZM144.197 29.44C141.877 29.44 139.824 28.9467 138.037 27.96C136.277 26.9733 134.891 25.6133 133.877 23.88C132.891 22.12 132.397 20.12 132.397 17.88V0.759999H138.717V18.24C138.717 19.36 138.957 20.3333 139.437 21.16C139.917 21.9867 140.571 22.6267 141.397 23.08C142.251 23.5067 143.184 23.72 144.197 23.72C145.264 23.72 146.197 23.5067 146.997 23.08C147.797 22.6267 148.424 22 148.877 21.2C149.357 20.3733 149.597 19.4 149.597 18.28V0.759999H155.917V17.92C155.917 20.16 155.424 22.1467 154.437 23.88C153.451 25.6133 152.077 26.9733 150.317 27.96C148.557 28.9467 146.517 29.44 144.197 29.44ZM165.723 17.36V12.72H171.683C172.936 12.72 173.896 12.4 174.563 11.76C175.256 11.12 175.603 10.2533 175.603 9.16C175.603 8.14667 175.27 7.30667 174.603 6.64C173.936 5.97333 172.976 5.64 171.723 5.64H165.723V0.759999H172.443C174.31 0.759999 175.95 1.12 177.363 1.84C178.776 2.53333 179.883 3.50667 180.683 4.76C181.483 6.01333 181.883 7.45333 181.883 9.08C181.883 10.7333 181.483 12.1867 180.683 13.44C179.883 14.6667 178.763 15.6267 177.323 16.32C175.883 17.0133 174.19 17.36 172.243 17.36H165.723ZM160.923 29V0.759999H167.203V29H160.923ZM176.283 29L167.483 16.84L173.243 15.28L183.723 29H176.283ZM186.47 29V0.759999H190.87L192.75 6.4V29H186.47ZM205.95 29L189.31 7.68L190.87 0.759999L207.51 22.08L205.95 29ZM205.95 29L204.27 23.36V0.759999H210.55V29H205.95ZM216.001 29V0.759999H222.281V29H216.001ZM234.64 29V1.16H240.92V29H234.64ZM225.8 6.24V0.759999H249.76V6.24H225.8ZM264.471 29.44C262.151 29.44 260.097 28.9467 258.311 27.96C256.551 26.9733 255.164 25.6133 254.151 23.88C253.164 22.12 252.671 20.12 252.671 17.88V0.759999H258.991V18.24C258.991 19.36 259.231 20.3333 259.711 21.16C260.191 21.9867 260.844 22.6267 261.671 23.08C262.524 23.5067 263.457 23.72 264.471 23.72C265.537 23.72 266.471 23.5067 267.271 23.08C268.071 22.6267 268.697 22 269.151 21.2C269.631 20.3733 269.871 19.4 269.871 18.28V0.759999H276.191V17.92C276.191 20.16 275.697 22.1467 274.711 23.88C273.724 25.6133 272.351 26.9733 270.591 27.96C268.831 28.9467 266.791 29.44 264.471 29.44ZM285.997 17.36V12.72H291.957C293.21 12.72 294.17 12.4 294.837 11.76C295.53 11.12 295.877 10.2533 295.877 9.16C295.877 8.14667 295.543 7.30667 294.877 6.64C294.21 5.97333 293.25 5.64 291.997 5.64H285.997V0.759999H292.717C294.583 0.759999 296.223 1.12 297.637 1.84C299.05 2.53333 300.157 3.50667 300.957 4.76C301.757 6.01333 302.157 7.45333 302.157 9.08C302.157 10.7333 301.757 12.1867 300.957 13.44C300.157 14.6667 299.037 15.6267 297.597 16.32C296.157 17.0133 294.463 17.36 292.517 17.36H285.997ZM281.197 29V0.759999H287.477V29H281.197ZM296.557 29L287.757 16.84L293.517 15.28L303.997 29H296.557ZM306.743 29V0.759999H313.023V29H306.743ZM311.543 29V23.56H327.023V29H311.543ZM311.543 17.2V11.96H325.623V17.2H311.543ZM311.543 6.16V0.759999H326.823V6.16H311.543Z" fill="black"/>
</svg>
