<svg width="262" height="24" viewBox="0 0 262 24" fill="none" xmlns="http://www.w3.org/2000/svg">
<path d="M0.48 23L9.44 0.407999H13.984L22.848 23H17.536L10.752 4.248H12.576L5.696 23H0.48ZM5.568 18.904V14.808H17.888V18.904H5.568ZM44.8193 23L34.4513 11.608C33.6406 10.712 33.0539 9.86933 32.6913 9.08C32.3286 8.26933 32.1473 7.384 32.1473 6.424C32.1473 5.272 32.4353 4.216 33.0113 3.256C33.6086 2.27467 34.4086 1.496 35.4113 0.919998C36.4353 0.322665 37.6193 0.0239983 38.9633 0.0239983C40.0086 0.0239983 40.9366 0.183999 41.7473 0.504C42.5579 0.802666 43.2619 1.19733 43.8593 1.688C44.4566 2.15733 44.9153 2.65867 45.2353 3.192L41.9713 6.296C41.5446 5.72 41.0966 5.28267 40.6273 4.984C40.1793 4.68533 39.6459 4.536 39.0273 4.536C38.3873 4.536 37.8539 4.728 37.4273 5.112C37.0219 5.47467 36.8193 5.93333 36.8193 6.488C36.8193 6.95733 36.9153 7.37333 37.1073 7.736C37.3206 8.09867 37.6193 8.504 38.0033 8.952L50.5473 23H44.8193ZM37.3953 23.352C35.8593 23.352 34.5153 23.0533 33.3633 22.456C32.2326 21.8373 31.3473 21.0053 30.7073 19.96C30.0886 18.8933 29.7793 17.7093 29.7793 16.408C29.7793 15 30.1526 13.752 30.8993 12.664C31.6459 11.5547 32.7659 10.6587 34.2593 9.976L36.3393 13.144C35.6993 13.4427 35.2193 13.8373 34.8993 14.328C34.5793 14.8187 34.4193 15.4053 34.4193 16.088C34.4193 16.6427 34.5366 17.1333 34.7713 17.56C35.0273 17.9653 35.3899 18.2853 35.8593 18.52C36.3286 18.7547 36.8833 18.872 37.5233 18.872C38.2486 18.872 38.8673 18.7227 39.3793 18.424C39.9126 18.104 40.3606 17.6667 40.7233 17.112L44.0193 20.504C43.6566 20.9733 43.1339 21.432 42.4513 21.88C41.7899 22.3067 41.0219 22.6587 40.1473 22.936C39.2939 23.2133 38.3766 23.352 37.3953 23.352ZM57.7073 23V0.407999H61.2273L62.7313 4.92V23H57.7073ZM73.2913 23L59.9793 5.944L61.2273 0.407999L74.5393 17.464L73.2913 23ZM73.2913 23L71.9473 18.488V0.407999H76.9713V23H73.2913ZM87.426 23V0.407999H92.45V23H87.426ZM91.266 14.136V9.816H102.562V14.136H91.266ZM91.266 4.728V0.407999H103.074V4.728H91.266ZM115.389 23.352C113.533 23.352 111.89 22.9573 110.461 22.168C109.053 21.3787 107.944 20.2907 107.133 18.904C106.344 17.496 105.949 15.896 105.949 14.104V0.407999H111.005V14.392C111.005 15.288 111.197 16.0667 111.581 16.728C111.965 17.3893 112.488 17.9013 113.149 18.264C113.832 18.6053 114.578 18.776 115.389 18.776C116.242 18.776 116.989 18.6053 117.629 18.264C118.269 17.9013 118.77 17.4 119.133 16.76C119.517 16.0987 119.709 15.32 119.709 14.424V0.407999H124.765V14.136C124.765 15.928 124.37 17.5173 123.581 18.904C122.792 20.2907 121.693 21.3787 120.285 22.168C118.877 22.9573 117.245 23.352 115.389 23.352ZM132.61 13.688V9.976H137.378C138.38 9.976 139.148 9.72 139.682 9.208C140.236 8.696 140.514 8.00267 140.514 7.128C140.514 6.31733 140.247 5.64533 139.714 5.112C139.18 4.57867 138.412 4.312 137.41 4.312H132.61V0.407999H137.986C139.479 0.407999 140.791 0.695999 141.922 1.272C143.052 1.82667 143.938 2.60533 144.578 3.608C145.218 4.61067 145.538 5.76267 145.538 7.064C145.538 8.38667 145.218 9.54933 144.578 10.552C143.938 11.5333 143.042 12.3013 141.89 12.856C140.738 13.4107 139.383 13.688 137.826 13.688H132.61ZM128.77 23V0.407999H133.794V23H128.77ZM141.058 23L134.018 13.272L138.626 12.024L147.01 23H141.058ZM149.207 23V0.407999H152.727L154.231 4.92V23H149.207ZM164.791 23L151.479 5.944L152.727 0.407999L166.039 17.464L164.791 23ZM164.791 23L163.447 18.488V0.407999H168.471V23H164.791ZM172.832 23V0.407999H177.856V23H172.832ZM187.743 23V0.727999H192.767V23H187.743ZM180.671 4.792V0.407999H199.839V4.792H180.671ZM211.608 23.352C209.752 23.352 208.109 22.9573 206.68 22.168C205.272 21.3787 204.162 20.2907 203.352 18.904C202.562 17.496 202.168 15.896 202.168 14.104V0.407999H207.224V14.392C207.224 15.288 207.416 16.0667 207.8 16.728C208.184 17.3893 208.706 17.9013 209.368 18.264C210.05 18.6053 210.797 18.776 211.608 18.776C212.461 18.776 213.208 18.6053 213.848 18.264C214.488 17.9013 214.989 17.4 215.352 16.76C215.736 16.0987 215.928 15.32 215.928 14.424V0.407999H220.984V14.136C220.984 15.928 220.589 17.5173 219.8 18.904C219.01 20.2907 217.912 21.3787 216.504 22.168C215.096 22.9573 213.464 23.352 211.608 23.352ZM228.829 13.688V9.976H233.597C234.599 9.976 235.367 9.72 235.901 9.208C236.455 8.696 236.733 8.00267 236.733 7.128C236.733 6.31733 236.466 5.64533 235.933 5.112C235.399 4.57867 234.631 4.312 233.629 4.312H228.829V0.407999H234.205C235.698 0.407999 237.01 0.695999 238.141 1.272C239.271 1.82667 240.157 2.60533 240.797 3.608C241.437 4.61067 241.757 5.76267 241.757 7.064C241.757 8.38667 241.437 9.54933 240.797 10.552C240.157 11.5333 239.261 12.3013 238.109 12.856C236.957 13.4107 235.602 13.688 234.045 13.688H228.829ZM224.989 23V0.407999H230.013V23H224.989ZM237.277 23L230.237 13.272L234.845 12.024L243.229 23H237.277ZM245.426 23V0.407999H250.45V23H245.426ZM249.266 23V18.648H261.65V23H249.266ZM249.266 13.56V9.368H260.53V13.56H249.266ZM249.266 4.728V0.407999H261.49V4.728H249.266Z" fill="black"/>
</svg>
